<?xml version="1.0" encoding="UTF-8"?>
<svg width="32" height="32" viewBox="0 0 32 32" fill="none" xmlns="http://www.w3.org/2000/svg">
  <!-- 화성시 AI 육아 생태계 아이콘 -->
  <defs>
    <linearGradient id="bgGradient" x1="0%" y1="0%" x2="100%" y2="100%">
      <stop offset="0%" style="stop-color:#0ea5e9;stop-opacity:1" />
      <stop offset="100%" style="stop-color:#22c55e;stop-opacity:1" />
    </linearGradient>
    <linearGradient id="iconGradient" x1="0%" y1="0%" x2="100%" y2="100%">
      <stop offset="0%" style="stop-color:#ffffff;stop-opacity:1" />
      <stop offset="100%" style="stop-color:#f0f9ff;stop-opacity:1" />
    </linearGradient>
  </defs>
  
  <!-- 배경 원 -->
  <circle cx="16" cy="16" r="15" fill="url(#bgGradient)" stroke="#0284c7" stroke-width="1"/>
  
  <!-- AI 뇌 모양 -->
  <path d="M10 12c0-2.5 2-4.5 4.5-4.5S19 9.5 19 12v3c0 1.5-1 2.5-2.5 2.5h-4c-1.5 0-2.5-1-2.5-2.5v-3z" fill="url(#iconGradient)" opacity="0.9"/>
  
  <!-- AI 회로 패턴 -->
  <circle cx="12" cy="11" r="1" fill="url(#iconGradient)"/>
  <circle cx="16" cy="10" r="1" fill="url(#iconGradient)"/>
  <circle cx="20" cy="11" r="1" fill="url(#iconGradient)"/>
  <line x1="12" y1="11" x2="16" y2="10" stroke="url(#iconGradient)" stroke-width="0.5"/>
  <line x1="16" y1="10" x2="20" y2="11" stroke="url(#iconGradient)" stroke-width="0.5"/>
  
  <!-- 하트 (돌봄) -->
  <path d="M16 22l-3-2.5c-1.5-1.3-2.5-2.2-2.5-3.5 0-1.1 0.9-2 2-2 0.7 0 1.4 0.4 1.8 1 0.4-0.6 1.1-1 1.8-1 1.1 0 2 0.9 2 2 0 1.3-1 2.2-2.5 3.5L16 22z" fill="url(#iconGradient)" opacity="0.8"/>
</svg>
